<mxfile host="Electron" modified="2024-07-21T02:01:32.384Z" agent="Mozilla/5.0 (Windows NT 10.0; Win64; x64) AppleWebKit/537.36 (KHTML, like Gecko) draw.io/24.1.0 Chrome/120.0.6099.109 Electron/28.1.0 Safari/537.36" etag="UhjK_UJmnhT5Ab6OguO_" version="24.1.0" type="device">
  <diagram name="时序图" id="9H7gYe5X_OfkNueghohF">
    <mxGraphModel dx="1050" dy="629" grid="1" gridSize="10" guides="1" tooltips="1" connect="1" arrows="1" fold="1" page="1" pageScale="1" pageWidth="827" pageHeight="1169" math="0" shadow="0">
      <root>
        <mxCell id="0" />
        <mxCell id="1" parent="0" />
        <mxCell id="MNCyZUClQ4Nkmhcj8Bod-1" value="ws client" style="rounded=0;whiteSpace=wrap;html=1;fillColor=#dae8fc;strokeColor=#6c8ebf;" parent="1" vertex="1">
          <mxGeometry x="40" y="80" width="120" height="40" as="geometry" />
        </mxCell>
        <mxCell id="MNCyZUClQ4Nkmhcj8Bod-2" value="UserController" style="rounded=0;whiteSpace=wrap;html=1;fillColor=#ffe6cc;strokeColor=#d79b00;" parent="1" vertex="1">
          <mxGeometry x="200" y="80" width="120" height="40" as="geometry" />
        </mxCell>
        <mxCell id="MNCyZUClQ4Nkmhcj8Bod-3" value="@OnOpen" style="rounded=0;whiteSpace=wrap;html=1;fillColor=#d5e8d4;strokeColor=#82b366;" parent="1" vertex="1">
          <mxGeometry x="360" y="80" width="120" height="40" as="geometry" />
        </mxCell>
        <mxCell id="MNCyZUClQ4Nkmhcj8Bod-4" value="@OnMessage" style="rounded=0;whiteSpace=wrap;html=1;fillColor=#e1d5e7;strokeColor=#9673a6;" parent="1" vertex="1">
          <mxGeometry x="520" y="80" width="120" height="40" as="geometry" />
        </mxCell>
        <mxCell id="MNCyZUClQ4Nkmhcj8Bod-5" value="@OnClose" style="rounded=0;whiteSpace=wrap;html=1;fillColor=#f8cecc;strokeColor=#b85450;" parent="1" vertex="1">
          <mxGeometry x="680" y="80" width="120" height="40" as="geometry" />
        </mxCell>
        <mxCell id="MNCyZUClQ4Nkmhcj8Bod-6" value="" style="endArrow=none;dashed=1;html=1;strokeWidth=2;rounded=0;entryX=0.5;entryY=1;entryDx=0;entryDy=0;exitX=0.5;exitY=0;exitDx=0;exitDy=0;dashPattern=1 1;" parent="1" source="MNCyZUClQ4Nkmhcj8Bod-7" target="MNCyZUClQ4Nkmhcj8Bod-1" edge="1">
          <mxGeometry width="50" height="50" relative="1" as="geometry">
            <mxPoint x="130" y="260" as="sourcePoint" />
            <mxPoint x="180" y="210" as="targetPoint" />
          </mxGeometry>
        </mxCell>
        <mxCell id="MNCyZUClQ4Nkmhcj8Bod-7" value="" style="rounded=0;whiteSpace=wrap;html=1;" parent="1" vertex="1">
          <mxGeometry x="90" y="160" width="20" height="400" as="geometry" />
        </mxCell>
        <mxCell id="MNCyZUClQ4Nkmhcj8Bod-8" value="" style="rounded=0;whiteSpace=wrap;html=1;" parent="1" vertex="1">
          <mxGeometry x="250" y="160" width="20" height="60" as="geometry" />
        </mxCell>
        <mxCell id="MNCyZUClQ4Nkmhcj8Bod-9" value="" style="endArrow=none;dashed=1;html=1;strokeWidth=2;rounded=0;entryX=0.5;entryY=1;entryDx=0;entryDy=0;exitX=0.5;exitY=0;exitDx=0;exitDy=0;dashPattern=1 1;" parent="1" source="MNCyZUClQ4Nkmhcj8Bod-8" target="MNCyZUClQ4Nkmhcj8Bod-2" edge="1">
          <mxGeometry width="50" height="50" relative="1" as="geometry">
            <mxPoint x="110" y="170" as="sourcePoint" />
            <mxPoint x="110" y="130" as="targetPoint" />
          </mxGeometry>
        </mxCell>
        <mxCell id="MNCyZUClQ4Nkmhcj8Bod-11" value="登录" style="text;html=1;align=center;verticalAlign=middle;resizable=0;points=[];autosize=1;strokeColor=none;fillColor=none;" parent="1" vertex="1">
          <mxGeometry x="155" y="150" width="50" height="30" as="geometry" />
        </mxCell>
        <mxCell id="MNCyZUClQ4Nkmhcj8Bod-12" style="edgeStyle=orthogonalEdgeStyle;rounded=0;orthogonalLoop=1;jettySize=auto;html=1;exitX=0.5;exitY=1;exitDx=0;exitDy=0;" parent="1" source="MNCyZUClQ4Nkmhcj8Bod-8" target="MNCyZUClQ4Nkmhcj8Bod-8" edge="1">
          <mxGeometry relative="1" as="geometry" />
        </mxCell>
        <mxCell id="MNCyZUClQ4Nkmhcj8Bod-13" value="" style="rounded=0;whiteSpace=wrap;html=1;" parent="1" vertex="1">
          <mxGeometry x="410" y="220" width="20" height="80" as="geometry" />
        </mxCell>
        <mxCell id="MNCyZUClQ4Nkmhcj8Bod-14" value="" style="rounded=0;whiteSpace=wrap;html=1;" parent="1" vertex="1">
          <mxGeometry x="570" y="320" width="20" height="90" as="geometry" />
        </mxCell>
        <mxCell id="MNCyZUClQ4Nkmhcj8Bod-15" value="" style="rounded=0;whiteSpace=wrap;html=1;" parent="1" vertex="1">
          <mxGeometry x="730" y="440" width="20" height="80" as="geometry" />
        </mxCell>
        <mxCell id="r9Aq4PWZt0B9nxM_uaOm-4" value="进入聊天室" style="text;html=1;align=center;verticalAlign=middle;resizable=0;points=[];autosize=1;strokeColor=none;fillColor=none;" vertex="1" parent="1">
          <mxGeometry x="140" y="198" width="80" height="30" as="geometry" />
        </mxCell>
        <mxCell id="r9Aq4PWZt0B9nxM_uaOm-5" value="" style="endArrow=classic;html=1;rounded=0;exitX=0.94;exitY=0.046;exitDx=0;exitDy=0;exitPerimeter=0;entryX=0;entryY=0.25;entryDx=0;entryDy=0;" edge="1" parent="1">
          <mxGeometry width="50" height="50" relative="1" as="geometry">
            <mxPoint x="110" y="252" as="sourcePoint" />
            <mxPoint x="410" y="250" as="targetPoint" />
          </mxGeometry>
        </mxCell>
        <mxCell id="r9Aq4PWZt0B9nxM_uaOm-6" value="" style="endArrow=none;dashed=1;html=1;strokeWidth=2;rounded=0;entryX=0.5;entryY=1;entryDx=0;entryDy=0;dashPattern=1 1;" edge="1" parent="1" target="MNCyZUClQ4Nkmhcj8Bod-8">
          <mxGeometry width="50" height="50" relative="1" as="geometry">
            <mxPoint x="260" y="560" as="sourcePoint" />
            <mxPoint x="270" y="130" as="targetPoint" />
          </mxGeometry>
        </mxCell>
        <mxCell id="r9Aq4PWZt0B9nxM_uaOm-8" value="" style="endArrow=classic;html=1;rounded=0;exitX=0.94;exitY=0.046;exitDx=0;exitDy=0;exitPerimeter=0;entryX=0.92;entryY=0.083;entryDx=0;entryDy=0;entryPerimeter=0;" edge="1" parent="1">
          <mxGeometry width="50" height="50" relative="1" as="geometry">
            <mxPoint x="109" y="180" as="sourcePoint" />
            <mxPoint x="251" y="180" as="targetPoint" />
          </mxGeometry>
        </mxCell>
        <mxCell id="r9Aq4PWZt0B9nxM_uaOm-9" value="" style="endArrow=classic;html=1;rounded=0;exitX=0.94;exitY=0.046;exitDx=0;exitDy=0;exitPerimeter=0;entryX=0;entryY=0.25;entryDx=0;entryDy=0;dashed=1;" edge="1" parent="1">
          <mxGeometry width="50" height="50" relative="1" as="geometry">
            <mxPoint x="410" y="270" as="sourcePoint" />
            <mxPoint x="110" y="272" as="targetPoint" />
          </mxGeometry>
        </mxCell>
        <mxCell id="r9Aq4PWZt0B9nxM_uaOm-10" value="打开会话" style="text;html=1;align=center;verticalAlign=middle;resizable=0;points=[];autosize=1;strokeColor=none;fillColor=none;" vertex="1" parent="1">
          <mxGeometry x="270" y="228" width="70" height="30" as="geometry" />
        </mxCell>
        <mxCell id="r9Aq4PWZt0B9nxM_uaOm-11" value="" style="endArrow=none;dashed=1;html=1;strokeWidth=2;rounded=0;entryX=0.5;entryY=1;entryDx=0;entryDy=0;exitX=0.5;exitY=0;exitDx=0;exitDy=0;dashPattern=1 1;" edge="1" parent="1" source="MNCyZUClQ4Nkmhcj8Bod-13" target="MNCyZUClQ4Nkmhcj8Bod-3">
          <mxGeometry width="50" height="50" relative="1" as="geometry">
            <mxPoint x="270" y="170" as="sourcePoint" />
            <mxPoint x="270" y="130" as="targetPoint" />
          </mxGeometry>
        </mxCell>
        <mxCell id="r9Aq4PWZt0B9nxM_uaOm-12" value="" style="endArrow=none;dashed=1;html=1;strokeWidth=2;rounded=0;entryX=0.5;entryY=1;entryDx=0;entryDy=0;exitX=0.5;exitY=0;exitDx=0;exitDy=0;dashPattern=1 1;" edge="1" parent="1" source="MNCyZUClQ4Nkmhcj8Bod-14" target="MNCyZUClQ4Nkmhcj8Bod-4">
          <mxGeometry width="50" height="50" relative="1" as="geometry">
            <mxPoint x="430" y="230" as="sourcePoint" />
            <mxPoint x="430" y="130" as="targetPoint" />
          </mxGeometry>
        </mxCell>
        <mxCell id="r9Aq4PWZt0B9nxM_uaOm-13" value="" style="endArrow=none;dashed=1;html=1;strokeWidth=2;rounded=0;entryX=0.5;entryY=1;entryDx=0;entryDy=0;exitX=0.5;exitY=0;exitDx=0;exitDy=0;dashPattern=1 1;" edge="1" parent="1" source="MNCyZUClQ4Nkmhcj8Bod-15" target="MNCyZUClQ4Nkmhcj8Bod-5">
          <mxGeometry width="50" height="50" relative="1" as="geometry">
            <mxPoint x="590" y="340" as="sourcePoint" />
            <mxPoint x="590" y="130" as="targetPoint" />
          </mxGeometry>
        </mxCell>
        <mxCell id="r9Aq4PWZt0B9nxM_uaOm-14" value="" style="endArrow=none;dashed=1;html=1;strokeWidth=2;rounded=0;entryX=0.5;entryY=1;entryDx=0;entryDy=0;dashPattern=1 1;" edge="1" parent="1" target="MNCyZUClQ4Nkmhcj8Bod-13">
          <mxGeometry width="50" height="50" relative="1" as="geometry">
            <mxPoint x="420" y="560" as="sourcePoint" />
            <mxPoint x="430" y="130" as="targetPoint" />
          </mxGeometry>
        </mxCell>
        <mxCell id="r9Aq4PWZt0B9nxM_uaOm-15" value="" style="endArrow=none;dashed=1;html=1;strokeWidth=2;rounded=0;entryX=0.5;entryY=1;entryDx=0;entryDy=0;dashPattern=1 1;" edge="1" parent="1" target="MNCyZUClQ4Nkmhcj8Bod-14">
          <mxGeometry width="50" height="50" relative="1" as="geometry">
            <mxPoint x="580" y="560" as="sourcePoint" />
            <mxPoint x="430" y="310" as="targetPoint" />
          </mxGeometry>
        </mxCell>
        <mxCell id="r9Aq4PWZt0B9nxM_uaOm-16" value="" style="endArrow=none;dashed=1;html=1;strokeWidth=2;rounded=0;entryX=0.5;entryY=1;entryDx=0;entryDy=0;dashPattern=1 1;" edge="1" parent="1" target="MNCyZUClQ4Nkmhcj8Bod-15">
          <mxGeometry width="50" height="50" relative="1" as="geometry">
            <mxPoint x="740" y="560" as="sourcePoint" />
            <mxPoint x="590" y="420" as="targetPoint" />
          </mxGeometry>
        </mxCell>
        <mxCell id="r9Aq4PWZt0B9nxM_uaOm-17" value="客户端响应数据" style="text;html=1;align=center;verticalAlign=middle;resizable=0;points=[];autosize=1;strokeColor=none;fillColor=none;" vertex="1" parent="1">
          <mxGeometry x="260" y="270" width="110" height="30" as="geometry" />
        </mxCell>
        <mxCell id="r9Aq4PWZt0B9nxM_uaOm-18" value="记录session，&lt;div&gt;httpSession&lt;/div&gt;&lt;div&gt;广播消息&lt;/div&gt;" style="text;html=1;align=left;verticalAlign=middle;resizable=0;points=[];autosize=1;strokeColor=none;fillColor=none;" vertex="1" parent="1">
          <mxGeometry x="440" y="220" width="100" height="60" as="geometry" />
        </mxCell>
        <mxCell id="r9Aq4PWZt0B9nxM_uaOm-20" value="" style="endArrow=classic;html=1;rounded=0;exitX=0.94;exitY=0.046;exitDx=0;exitDy=0;exitPerimeter=0;entryX=0;entryY=0.25;entryDx=0;entryDy=0;dashed=1;" edge="1" parent="1">
          <mxGeometry width="50" height="50" relative="1" as="geometry">
            <mxPoint x="570" y="380" as="sourcePoint" />
            <mxPoint x="110" y="382" as="targetPoint" />
          </mxGeometry>
        </mxCell>
        <mxCell id="r9Aq4PWZt0B9nxM_uaOm-22" value="" style="endArrow=classic;html=1;rounded=0;exitX=0.94;exitY=0.046;exitDx=0;exitDy=0;exitPerimeter=0;entryX=0;entryY=0.25;entryDx=0;entryDy=0;" edge="1" parent="1">
          <mxGeometry width="50" height="50" relative="1" as="geometry">
            <mxPoint x="110" y="352" as="sourcePoint" />
            <mxPoint x="570" y="350" as="targetPoint" />
          </mxGeometry>
        </mxCell>
        <mxCell id="r9Aq4PWZt0B9nxM_uaOm-23" value="发送信息" style="text;html=1;align=center;verticalAlign=middle;resizable=0;points=[];autosize=1;strokeColor=none;fillColor=none;" vertex="1" parent="1">
          <mxGeometry x="450" y="320" width="70" height="30" as="geometry" />
        </mxCell>
        <mxCell id="r9Aq4PWZt0B9nxM_uaOm-24" value="解析消息，&lt;div&gt;判断发消息的人&lt;/div&gt;&lt;div&gt;发送消息&lt;/div&gt;" style="text;html=1;align=left;verticalAlign=middle;resizable=0;points=[];autosize=1;strokeColor=none;fillColor=none;" vertex="1" parent="1">
          <mxGeometry x="600" y="335" width="110" height="60" as="geometry" />
        </mxCell>
        <mxCell id="r9Aq4PWZt0B9nxM_uaOm-25" value="推送信息给指定的人" style="text;html=1;align=center;verticalAlign=middle;resizable=0;points=[];autosize=1;strokeColor=none;fillColor=none;" vertex="1" parent="1">
          <mxGeometry x="425" y="380" width="130" height="30" as="geometry" />
        </mxCell>
        <mxCell id="r9Aq4PWZt0B9nxM_uaOm-27" value="" style="endArrow=classic;html=1;rounded=0;exitX=0.08;exitY=0.635;exitDx=0;exitDy=0;exitPerimeter=0;entryX=0;entryY=0.25;entryDx=0;entryDy=0;" edge="1" parent="1">
          <mxGeometry width="50" height="50" relative="1" as="geometry">
            <mxPoint x="110" y="471" as="sourcePoint" />
            <mxPoint x="732" y="470" as="targetPoint" />
          </mxGeometry>
        </mxCell>
        <mxCell id="r9Aq4PWZt0B9nxM_uaOm-28" value="" style="endArrow=classic;html=1;rounded=0;exitX=0.08;exitY=0.635;exitDx=0;exitDy=0;exitPerimeter=0;entryX=0;entryY=0.25;entryDx=0;entryDy=0;dashed=1;" edge="1" parent="1">
          <mxGeometry width="50" height="50" relative="1" as="geometry">
            <mxPoint x="732" y="500" as="sourcePoint" />
            <mxPoint x="110" y="501" as="targetPoint" />
          </mxGeometry>
        </mxCell>
        <mxCell id="r9Aq4PWZt0B9nxM_uaOm-29" value="关闭连接时触发" style="text;html=1;align=center;verticalAlign=middle;resizable=0;points=[];autosize=1;strokeColor=none;fillColor=none;" vertex="1" parent="1">
          <mxGeometry x="590" y="440" width="110" height="30" as="geometry" />
        </mxCell>
        <mxCell id="r9Aq4PWZt0B9nxM_uaOm-30" value="推送消息给客户端" style="text;html=1;align=center;verticalAlign=middle;resizable=0;points=[];autosize=1;strokeColor=none;fillColor=none;" vertex="1" parent="1">
          <mxGeometry x="595" y="500" width="120" height="30" as="geometry" />
        </mxCell>
        <mxCell id="r9Aq4PWZt0B9nxM_uaOm-31" value="" style="endArrow=classic;html=1;rounded=0;exitX=0.94;exitY=0.046;exitDx=0;exitDy=0;exitPerimeter=0;entryX=0.92;entryY=0.083;entryDx=0;entryDy=0;entryPerimeter=0;dashed=1;" edge="1" parent="1">
          <mxGeometry width="50" height="50" relative="1" as="geometry">
            <mxPoint x="252" y="200" as="sourcePoint" />
            <mxPoint x="110" y="200" as="targetPoint" />
          </mxGeometry>
        </mxCell>
      </root>
    </mxGraphModel>
  </diagram>
</mxfile>
